# AST/ASF file generated using VICON BodyLanguage
# -----------------------------------------------
:version 1.10
:name VICON
:units
  mass 1.0
  length 0.45
  angle deg
:documentation
   .ast/.asf automatically generated from VICON data using
   VICON BodyBuilder and BodyLanguage model FoxedUp or BRILLIANT.MOD
:root
   order TX TY TZ RX RY RZ
   axis XYZ
   position 0 0 0  
   orientation 0 0 0 
:bonedata
  begin
     id 1 
     name lhipjoint
     direction 0.612567 -0.751349 0.245431 
     length 2.42285 
     axis 0 0 0  XYZ
  end
  begin
     id 2 
     name lfemur
     direction 0.34202 -0.939693 0  
     length 7.11304  
     axis 0 0 20  XYZ
    dof rx ry rz
    limits (-160.0 20.0)
           (-70.0 70.0)
           (-60.0 70.0)
  end
  begin
     id 3 
     name ltibia
     direction 0.34202 -0.939693 0   
     length 7.84529   
     axis 0 0 20   XYZ
    dof rx
    limits (-10.0 170.0)
  end
  begin
     id 4 
     name lfoot
     direction 0.0779239 -0.214094 0.9737   
     length 1.97176   
     axis -90 7.62852e-016 20   XYZ
    dof rx rz
    limits (-45.0 90.0)
           (-70.0 20.0)
  end
  begin
     id 5 
     name ltoes
     direction 1.53565e-011 -4.21709e-011 1   
     length 0.993197   
     axis -90 7.62852e-016 20   XYZ
    dof rx
    limits (-90.0 20.0)
  end
  begin
     id 6 
     name rhipjoint
     direction -0.665722 -0.709315 0.231701   
     length 2.56642  
     axis 0 0 0  XYZ 
  end
  begin
     id 7 
     name rfemur
     direction -0.34202 -0.939693 0   
     length 7.32108   
     axis 0 0 -20   XYZ
    dof rx ry rz
    limits (-160.0 20.0)
           (-70.0 70.0)
           (-70.0 60.0)
  end
  begin
     id 8 
     name rtibia
     direction -0.34202 -0.939693 0   
     length 7.81254   
     axis 0 0 -20   XYZ
    dof rx
    limits (-10.0 170.0)
 end
 begin
     id 9 
     name rfoot
     direction -0.0832806 -0.228812 0.969902   
     length 2.08278  
     axis -90 -7.62852e-016 -20   XYZ
    dof rx rz
    limits (-45.0 90.0)
           (-20.0 70.0)
  end
  begin
     id 10 
     name rtoes
     direction -1.53589e-011 -4.22086e-011 1   
     length 1.04609   
     axis -90 -7.62852e-016 -20   XYZ
    dof rx
    limits (-90.0 20.0)
  end
  begin
     id 11 
     name lowerback
     direction -0.00506013 0.988403 -0.151766   
     length 2.01978   
     axis 0 0 0   XYZ
    dof rx ry rz
    limits (-20.0 45.0)
           (-30.0 30.0)
           (-30.0 30.0)
  end
  begin
     id 12 
     name upperback
     direction -0.00836389 0.99968 0.0238859   
     length 2.01276   
     axis 0 0 0   XYZ
    dof rx ry rz
    limits (-20.0 45.0)
           (-30.0 30.0)
           (-30.0 30.0)
  end
  begin
     id 13 
     name thorax
     direction -0.00684136 0.995386 0.0957043   
     length 2.07303   
     axis 0 0 0   XYZ
    dof rx ry rz
    limits (-20.0 45.0)
           (-30.0 30.0)
           (-30.0 30.0)
  end
  begin
     id 14 
     name lowerneck
     direction -0.0161045 0.999661 0.0204485   
     length 1.91243   
     axis 0 0 0   XYZ
    dof rx ry rz
    limits (-20.0 45.0)
           (-30.0 30.0)
           (-30.0 30.0)
  end
  begin
     id 15 
     name upperneck
     direction 0.0553583 0.990946 -0.122319   
     length 1.91574   
     axis 0 0 0   XYZ
    dof rx ry rz
    limits (-20.0 45.0)
           (-30.0 30.0)
           (-30.0 30.0)
  end
  begin
     id 16
     name head
     direction 0.0180273 0.998839 -0.0446756  
     length 1.92693  
     axis 0 0 0   XYZ
    dof rx ry rz
    limits (-20.0 45.0)
           (-30.0 30.0)
           (-30.0 30.0)
  end
  begin
     id 17 
     name lclavicle
     direction 0.945646 0.319323 -0.0615358  
     length 4.0076  
     axis 0 0 0   XYZ
    dof ry rz
    limits (-20.0 10.0)
           (0.0 20.0)
  end
  begin
     id 18 
     name lhumerus
     direction 1 -4.48967e-011 -2.79996e-027   
     length 5.64147   
     axis 180 -30 -90   XYZ
    dof rx ry rz
    limits (-60.0 90.0)
           (-90.0 90.0)
           (-90.0 90.0)
  end
  begin
     id 19
     name lradius
     direction 1 -4.48976e-011 -9.5122e-027   
     length 2.86444   
     axis 180 -30 -90   XYZ
    dof rx
    limits (-10.0 170.0)
  end
  begin
     id 20
     name lwrist
     direction 1 -4.48983e-011 -1.24047e-026   
     length 1.43222   
     axis 9.05591e-015 90 90   XYZ
    dof ry
    limits (-180.0 0.0)
 end
  begin
     id 21 
     name lhand
     direction 1 -4.4892e-011 -2.48094e-026   
     length 0.722123   
     axis 1.58305e-014 90 90   XYZ
    dof rx rz
    limits (-90.0 90.0)
           (-45.0 45.0)
  end
  begin
     id 22 
     name lfingers
     direction 1 -4.48895e-011 -4.96187e-026   
     length 0.582194   
     axis 3.1661e-014 90 90   XYZ
    dof rx
    limits (0.0 90.0)
  end
  begin
     id 23
     name lthumb
     direction 0.707107 -6.34961e-011 0.707107   
     length 0.835918   
     axis -90 45 2.85299e-015   XYZ
    dof rx rz
    limits (-45.0 45.0)
           (-45.0 45.0)
  end
  begin
     id 24 
     name rclavicle
     direction -0.932635 0.324218 -0.15835   
     length 3.65819  
     axis 0 0 0   XYZ 
    dof ry rz
    limits (-10.0 20.0)
           (-20.0 0.0)
  end
  begin
     id 25 
     name rhumerus
     direction -1 -4.48965e-011 -4.02296e-027  
     length 5.44729   
     axis 180 30 90   XYZ
    dof rx ry rz
    limits (-90.0 60.0)
           (-90.0 90.0)
           (-90.0 90.0)
  end
  begin
     id 26 
     name rradius
     direction -1 -4.48957e-011 -8.81087e-027   
     length 3.08821   
     axis 180 30 90   XYZ
    dof rx
    limits (-10.0 170.0)
  end
  begin
     id 27 
     name rwrist
     direction -1 -4.49015e-011 -1.24047e-026   
     length 1.5441   
     axis 9.05591e-015 -90 -90   XYZ
    dof ry
    limits (-180.0 0.0)
  end
  begin
     id 28
     name rhand
     direction -1 -4.4891e-011 -2.48094e-026   
     length 0.821049   
     axis 1.58305e-014 -90 -90   XYZ
    dof rx rz
    limits (-90.0 90.0)
           (-45.0 45.0)
  end
  begin
     id 29
     name rfingers
     direction -1 -4.48985e-011 -4.96187e-026   
     length 0.661951   
     axis 3.1661e-014 -90 -90   XYZ
    dof rx
    limits (0.0 90.0)
  end
  begin
     id 30
     name rthumb
     direction -0.707107 -6.34906e-011 0.707107   
     length 0.950433   
     axis -90 -45 -2.85299e-015   XYZ
    dof rx rz
    limits (-45.0 45.0)
           (-45.0 45.0)
  end
:hierarchy
  begin
    root lhipjoint rhipjoint lowerback
    lhipjoint lfemur
    lfemur ltibia
    ltibia lfoot
    lfoot ltoes
    rhipjoint rfemur
    rfemur rtibia
    rtibia rfoot
    rfoot rtoes
    lowerback upperback
    upperback thorax
    thorax lowerneck lclavicle rclavicle
    lowerneck upperneck
    upperneck head
    lclavicle lhumerus
    lhumerus lradius
    lradius lwrist
    lwrist lhand lthumb
    lhand lfingers
    rclavicle rhumerus
    rhumerus rradius
    rradius rwrist
    rwrist rhand rthumb
    rhand rfingers
  end

#!OML:ASF F:\VICON\USERDATA\INSTALL\rory3\rory3.ASF
:FULLY-SPECIFIED
:DEGREES
1277
root 4.01908 17.4634 0.584741 -226.283 88.2514 -220.764
lowerback -7.70755 -1.08042 4.76411
upperback -9.00238 -1.2519 -1.4188
thorax -5.25735 -0.789538 -4.20637
lowerneck -7.64405 -5.01354 -6.49972
upperneck 12.2586 -6.55156 4.80236
head 5.31879 -3.17248 2.09419
rclavicle 2.61402e-014 1.59028e-014
rhumerus -87.7976 33.8802 -109.745
rradius 109.98
rwrist 0.880519
rhand 13.4799 10.976
rfingers 7.12502
rthumb 38.4189 -14.708
lclavicle 2.61402e-014 1.59028e-014
lhumerus -15.9077 24.3085 10.4996
lradius 95.6551
lwrist 11.5803
lhand 4.03951 43.9908
lfingers 7.12502
lthumb 29.4534 71.6757
rfemur 8.12508 1.92622 18.9949
rtibia 17.9453
rfoot -22.6267 -2.41391
rtoes -8.90135
lfemur 12.8246 -0.846448 -16.6524
ltibia 5.70689
lfoot -13.5469 0.190252
ltoes -7.81274
1278
root 4.01547 17.4653 0.583242 -230.051 88.1506 -224.577
lowerback -7.67842 -1.12382 4.80725
upperback -9.01601 -1.30676 -1.32881
thorax -5.29336 -0.817495 -4.1366
lowerneck -7.6622 -4.99314 -6.48553
upperneck 12.3221 -6.52943 4.83145
head 5.34072 -3.15812 2.10197
rclavicle -9.93923e-016 2.127e-014
rhumerus -87.8354 33.9476 -109.669
rradius 110.16
rwrist 0.839759
rhand 13.6205 10.8786
rfingers 7.12502
rthumb 38.5516 -14.7684
lclavicle -9.93923e-016 2.127e-014
lhumerus -15.9903 24.2724 10.5274
lradius 95.6476
lwrist 11.6115
lhand 4.02265 44.008
lfingers 7.12502
lthumb 29.4373 71.6957
rfemur 8.0182 1.96683 18.8162
rtibia 18.0331
rfoot -22.6543 -2.38378
rtoes -8.63811
lfemur 12.9613 -0.800545 -16.8366
ltibia 5.32384
lfoot -13.357 0.229075
ltoes -7.94992
1279
root 4.01174 17.4676 0.582253 -231.132 88.1479 -225.658
lowerback -7.59386 -1.13162 4.97295
upperback -9.02136 -1.31646 -1.21007
thorax -5.35083 -0.830019 -4.10344
lowerneck -7.67383 -5.01079 -6.51987
upperneck 12.4365 -6.5541 4.85727
head 5.38173 -3.16882 2.11264
rclavicle -2.98177e-015 -3.97569e-015
rhumerus -87.8211 33.9075 -109.528
rradius 110.272
rwrist 0.879202
rhand 13.5764 10.8673
rfingers 7.12502
rthumb 38.51 -14.7913
lclavicle -2.98177e-015 -3.97569e-015
lhumerus -15.9731 24.2029 10.6373
lradius 95.6527
lwrist 11.655
lhand 3.86501 44.0646
lfingers 7.12502
lthumb 29.2868 71.7786
rfemur 7.95976 2.01931 18.7953
rtibia 18.1167
rfoot -22.6799 -2.46371
rtoes -8.70603
lfemur 13.1932 -0.757086 -16.8729
ltibia 4.85795
lfoot -13.1528 0.283928
ltoes -7.92333
1280
root 4.01055 17.4674 0.581232 -231.222 88.147 -225.744
lowerback -7.58592 -1.14073 5.18158
upperback -8.97897 -1.33676 -1.11416
thorax -5.31778 -0.848706 -4.12028
lowerneck -7.62363 -5.0467 -6.50427
upperneck 12.3544 -6.61236 4.9093
head 5.35228 -3.19399 2.12349
rclavicle -3.16068e-014 8.74653e-015
rhumerus -87.7285 33.8479 -109.369
rradius 110.366
rwrist 0.962811
rhand 13.4862 10.9374
rfingers 7.12502
rthumb 38.4249 -14.745
lclavicle -3.16068e-014 8.74653e-015
lhumerus -15.9998 24.1564 10.7074
lradius 95.6727
lwrist 11.634
lhand 3.73244 44.0809
lfingers 7.12502
lthumb 29.1602 71.817
rfemur 7.94321 2.08259 18.8086
rtibia 18.1593
rfoot -22.7123 -2.51038
rtoes -8.67789
lfemur 13.3858 -0.738813 -16.8818
ltibia 4.48742
lfoot -12.969 0.274703
ltoes -7.82156
1281
root 4.00885 17.4681 0.579758 -232.014 88.1229 -226.547
lowerback -7.60278 -1.16683 5.37903
upperback -8.92425 -1.38189 -1.02934
thorax -5.26045 -0.878719 -4.14364
lowerneck -7.56591 -5.05751 -6.39798
upperneck 12.2146 -6.63744 4.89134
head 5.29627 -3.20401 2.10116
rclavicle 6.95746e-015 6.75868e-015
rhumerus -87.6289 33.8616 -109.239
rradius 110.473
rwrist 0.980901
rhand 13.4481 10.9267
rfingers 7.12502
rthumb 38.389 -14.7656
lclavicle 6.95746e-015 6.75868e-015
lhumerus -16.091 24.0959 10.6964
lradius 95.7239
lwrist 11.6398
lhand 3.74913 43.9067
lfingers 7.12502
lthumb 29.1762 71.64
rfemur 7.93445 2.11447 18.7662
rtibia 18.1439
rfoot -22.7465 -2.46034
rtoes -8.65461
lfemur 13.4261 -0.715985 -16.9268
ltibia 4.37512
lfoot -12.882 0.241703
ltoes -7.43722
1282
root 4.00622 17.4703 0.578322 -232.906 88.1096 -227.469
lowerback -7.62629 -1.19459 5.54976
upperback -8.87203 -1.42731 -0.911307
thorax -5.1999 -0.905716 -4.11716
lowerneck -7.6896 -5.07146 -6.36698
upperneck 12.34 -6.65505 4.8795
head 5.35575 -3.20919 2.08733
rclavicle -1.59028e-014 5.56597e-015
rhumerus -87.4854 33.9166 -109.084
rradius 110.573
rwrist 0.97263
rhand 13.5121 10.7969
rfingers 7.12502
rthumb 38.4493 -14.8787
lclavicle -1.59028e-014 5.56597e-015
lhumerus -16.1363 24.0745 10.6964
lradius 95.8074
lwrist 11.702
lhand 3.73205 43.9671
lfingers 7.12502
lthumb 29.1599 71.7032
rfemur 7.90738 2.13739 18.7296
rtibia 18.1156
rfoot -22.7214 -2.44797
rtoes -8.59809
lfemur 13.3991 -0.682482 -16.9635
ltibia 4.33584
lfoot -12.8227 0.247003
ltoes -7.26646
1283
root 4.00293 17.4722 0.57629 -232.484 88.1496 -227.109
lowerback -7.64367 -1.22728 5.79251
upperback -8.87253 -1.47577 -0.776612
thorax -5.20358 -0.939116 -4.11326
lowerneck -7.68907 -5.06864 -6.3519
upperneck 12.3979 -6.65506 4.88683
head 5.37336 -3.20727 2.08689
rclavicle -1.09332e-014 -8.34896e-015
rhumerus -87.4559 33.9809 -108.991
rradius 110.713
rwrist 1.00863
rhand 13.6334 10.7664
rfingers 7.12502
rthumb 38.5638 -14.8772
lclavicle -1.09332e-014 -8.34896e-015
lhumerus -16.2284 23.981 10.6783
lradius 95.8634
lwrist 11.7079
lhand 3.7015 44.1256
lfingers 7.12502
lthumb 29.1307 71.8668
rfemur 7.8419 2.13775 18.7612
rtibia 18.0891
rfoot -22.6549 -2.4304
rtoes -8.48693
lfemur 13.3282 -0.650711 -16.9208
ltibia 4.30599
lfoot -12.7704 0.245652
ltoes -7.16198
1284
root 4.00047 17.4735 0.574264 -232.354 88.1941 -227.014
lowerback -7.61442 -1.24235 6.05301
upperback -8.88456 -1.49872 -0.666024
thorax -5.24492 -0.962964 -4.1429
lowerneck -7.50878 -5.07556 -6.31856
upperneck 12.26 -6.67814 4.91832
head 5.30113 -3.21794 2.09486
rclavicle 2.78299e-015 3.18055e-015
rhumerus -87.4687 33.9298 -108.889
rradius 110.886
rwrist 1.05916
rhand 13.783 10.675
rfingers 7.12502
rthumb 38.7049 -14.9289
lclavicle 2.78299e-015 3.18055e-015
lhumerus -16.2711 23.8161 10.7055
lradius 95.8316
lwrist 11.6715
lhand 3.66099 44.0774
lfingers 7.12502
lthumb 29.092 71.8253
rfemur 7.79367 2.14016 18.7886
rtibia 18.084
rfoot -22.6168 -2.41985
rtoes -8.51418
lfemur 13.3321 -0.60929 -16.8842
ltibia 4.22462
lfoot -12.7392 0.284435
ltoes -7.28243
1285
root 3.99831 17.4755 0.572369 -232.78 88.2101 -227.463
lowerback -7.59038 -1.24448 6.25679
upperback -8.86878 -1.50504 -0.551399
thorax -5.24827 -0.973936 -4.13628
lowerneck -7.43913 -5.10262 -6.37897
upperneck 12.2398 -6.72018 4.99555
head 5.29023 -3.23694 2.12718
rclavicle -1.39149e-015 -5.56597e-015
rhumerus -87.4631 33.844 -108.761
rradius 111.058
rwrist 1.16658
rhand 13.8133 10.5321
rfingers 7.12502
rthumb 38.7334 -15.0637
lclavicle -1.39149e-015 -5.56597e-015
lhumerus -16.2742 23.6797 10.7972
lradius 95.813
lwrist 11.7098
lhand 3.54367 44.1023
lfingers 7.12502
lthumb 28.9799 71.8695
rfemur 7.74399 2.18366 18.7939
rtibia 18.1071
rfoot -22.6198 -2.45226
rtoes -8.71299
lfemur 13.4169 -0.570756 -16.8862
ltibia 4.01504
lfoot -12.6487 0.324006
ltoes -7.37959
1286
root 3.99649 17.4759 0.569233 -234.582 88.1339 -229.283
lowerback -7.57659 -1.26907 6.34774
upperback -8.8477 -1.53882 -0.452617
thorax -5.23826 -0.992209 -4.08386
lowerneck -7.45267 -5.12928 -6.40096
upperneck 12.3129 -6.75509 5.00019
head 5.31821 -3.25371 2.12862
rclavicle 1.07344e-014 5.56597e-015
rhumerus -87.4663 33.8167 -108.645
rradius 111.188
rwrist 1.29108
rhand 13.8108 10.5226
rfingers 7.12502
rthumb 38.7311 -15.074
lclavicle 1.07344e-014 5.56597e-015
lhumerus -16.3428 23.6128 10.8674
lradius 95.814
lwrist 11.7562
lhand 3.71977 44.0719
lfingers 7.12502
lthumb 29.1481 71.8101
rfemur 7.69249 2.18306 18.6741
rtibia 18.1624
rfoot -22.66 -2.43507
rtoes -8.78466
lfemur 13.5841 -0.547104 -17.0086
ltibia 3.6581
lfoot -12.4732 0.33337
ltoes -7.56944
1287
root 3.99442 17.4769 0.566448 -237.372 88.0024 -232.084
lowerback -7.53787 -1.30641 6.38532
upperback -8.83104 -1.58662 -0.371201
thorax -5.24649 -1.0158 -4.01947
lowerneck -7.45669 -5.12956 -6.32215
upperneck 12.322 -6.75176 4.90038
head 5.31543 -3.25476 2.08498
rclavicle -7.95139e-016 -2.46493e-014
rhumerus -87.4749 33.8415 -108.535
rradius 111.34
rwrist 1.39216
rhand 13.8833 10.5664
rfingers 7.12502
rthumb 38.7995 -15.0107
lclavicle -7.95139e-016 -2.46493e-014
lhumerus -16.4084 23.5201 10.9026
lradius 95.836
lwrist 11.8445
lhand 3.6978 44.1823
lfingers 7.12502
lthumb 29.1271 71.9241
rfemur 7.64936 2.20614 18.4833
rtibia 18.2246
rfoot -22.7098 -2.404
rtoes -8.80995
lfemur 13.7608 -0.519431 -17.2029
ltibia 3.28682
lfoot -12.3207 0.359981
ltoes -7.43703
1288
root 3.9922 17.477 0.564754 -238.376 87.9801 -233.122
lowerback -7.52746 -1.32224 6.56383
upperback -8.81289 -1.61215 -0.289848
thorax -5.24226 -1.03578 -4.03434
lowerneck -7.3962 -5.13461 -6.23672
upperneck 12.261 -6.76526 4.86187
head 5.28268 -3.26095 2.06018
rclavicle 5.96354e-015 1.11319e-014
rhumerus -87.4946 33.8172 -108.449
rradius 111.527
rwrist 1.43171
rhand 13.9516 10.5483
rfingers 7.12502
rthumb 38.8639 -15.0106
lclavicle 5.96354e-015 1.11319e-014
lhumerus -16.3643 23.4743 10.9349
lradius 95.7954
lwrist 11.7807
lhand 3.57564 44.1957
lfingers 7.12502
lthumb 29.0105 71.9577
rfemur 7.57022 2.19646 18.4188
rtibia 18.2944
rfoot -22.6729 -2.37246
rtoes -8.57443
lfemur 13.948 -0.479092 -17.2588
ltibia 2.83905
lfoot -12.1091 0.400529
ltoes -7.33925
1289
root 3.98922 17.4781 0.564111 -238.623 88.0222 -233.399
lowerback -7.48269 -1.33976 6.78167
upperback -8.8035 -1.63662 -0.172461
thorax -5.26759 -1.05704 -4.03224
lowerneck -7.41382 -5.13196 -6.28953
upperneck 12.3542 -6.76741 4.94885
head 5.3195 -3.25735 2.09456
rclavicle 2.94201e-014 -2.70347e-014
rhumerus -87.5274 33.802 -108.385
rradius 111.687
rwrist 1.45868
rhand 13.9561 10.4279
rfingers 7.12502
rthumb 38.8682 -15.1297
lclavicle 2.94201e-014 -2.70347e-014
lhumerus -16.3858 23.4692 10.9835
lradius 95.7142
lwrist 11.6439
lhand 3.51313 44.037
lfingers 7.12502
lthumb 28.9508 71.8092
rfemur 7.48957 2.21644 18.449
rtibia 18.3505
rfoot -22.6325 -2.46383
rtoes -8.72698
lfemur 14.1264 -0.430222 -17.2337
ltibia 2.40969
lfoot -11.8922 0.435696
ltoes -7.19912
